<svg width="130" height="130" viewBox="0 0 130 130" fill="none" xmlns="http://www.w3.org/2000/svg">
<path d="M58.521 0.135756C58.0219 0.256219 55.5699 0.686444 53.0729 1.09115C6.17415 8.69813 -16.0083 65.9044 13.0263 104.367C22.0681 116.344 42.8323 129.907 43.8607 124.506C43.9895 123.832 42.7534 122.978 39.6854 121.624C27.0991 116.065 15.7097 105.112 9.49548 92.5938C-13.0744 47.1276 25.5402 -4.32316 75.965 4.02855C83.5399 5.28362 84.8555 2.66785 77.4319 1.11133C74.053 0.402793 60.344 -0.304558 58.521 0.135756ZM58.8236 13.5428C49.9562 14.8495 38.5455 19.3897 38.5455 21.6114C38.5455 23.3353 39.8261 23.2018 44.5063 20.9901C70.1424 8.87794 101.354 22.1307 110.64 49.0717C126.075 93.8525 75.1194 131.76 36.427 104.279C14.9264 89.009 9.96843 58.679 25.4031 36.8396C29.4989 31.0443 27.3436 28.5941 23.1612 34.2915C-2.60779 69.3967 24.2964 118.982 67.7711 116.507C111.658 114.008 132.641 61.4206 102.441 29.6195C91.3694 17.9613 73.5088 11.378 58.8242 13.5416L58.8236 13.5428ZM111.588 21.4488C110.688 22.349 111.376 23.9601 114.257 27.704C135.62 55.458 128.626 96.943 99.2939 116.46C86.0768 125.255 74.472 127.692 52.7708 126.233C50.7271 126.096 50.3491 126.252 50.3491 127.237C50.3491 131.711 76.324 130.498 89.2029 125.422C126.968 110.539 141.858 62.4947 119.094 28.9739C114.774 22.6137 112.602 20.4347 111.588 21.4488Z" fill="white"/>
<rect x="50" y="35" width="5" height="60" fill="white"/>
<rect x="75" y="35" width="5" height="60" fill="white"/>
</svg>
